HIERARCHY
ROOT Hips
{
	OFFSET 62.890800 8.863803 43.568401
	CHANNELS 6 Xposition Yposition Zposition Zrotation Xrotation Yrotation
	JOINT Chest
	{
		OFFSET -0.160400 1.630001 7.806301
		CHANNELS 6 Xposition Yposition Zposition Zrotation Xrotation Yrotation
		JOINT Chest2
		{
			OFFSET 0.000000 0.000000 3.197998
			CHANNELS 6 Xposition Yposition Zposition Zrotation Xrotation Yrotation
			JOINT Neck
			{
				OFFSET 0.000000 0.000001 7.440701
				CHANNELS 6 Xposition Yposition Zposition Zrotation Xrotation Yrotation
				JOINT Head
				{
					OFFSET 0.000000 0.000000 2.173901
					CHANNELS 6 Xposition Yposition Zposition Zrotation Xrotation Yrotation
					End Site
					{
						OFFSET 0.000000 0.000001 10.420303
					}
				}
			}
			JOINT LeftCollar
			{
				OFFSET 2.426399 -1.880099 4.759399
				CHANNELS 6 Xposition Yposition Zposition Zrotation Xrotation Yrotation
				JOINT LeftShoulder
				{
					OFFSET 4.420197 0.000000 0.000000
					CHANNELS 6 Xposition Yposition Zposition Zrotation Xrotation Yrotation
					JOINT LeftElbow
					{
						OFFSET 0.000000 -0.000001 -10.347099
						CHANNELS 6 Xposition Yposition Zposition Zrotation Xrotation Yrotation
						JOINT LeftWrist
						{
							OFFSET 0.000000 -0.000001 -12.496300
							CHANNELS 6 Xposition Yposition Zposition Zrotation Xrotation Yrotation
							End Site
							{
								OFFSET 0.000000 0.000000 -2.173901
							}
						}
					}
				}
			}
			JOINT RightCollar
			{
				OFFSET -2.781502 -1.903799 5.072601
				CHANNELS 6 Xposition Yposition Zposition Zrotation Xrotation Yrotation
				JOINT RightShoulder
				{
					OFFSET -4.012100 0.000000 0.000000
					CHANNELS 6 Xposition Yposition Zposition Zrotation Xrotation Yrotation
					JOINT RightElbow
					{
						OFFSET 0.000000 -0.000001 -10.346600
						CHANNELS 6 Xposition Yposition Zposition Zrotation Xrotation Yrotation
						JOINT RightWrist
						{
							OFFSET 0.000000 -0.000001 -12.562599
							CHANNELS 6 Xposition Yposition Zposition Zrotation Xrotation Yrotation
							End Site
							{
								OFFSET 0.000000 0.000000 -2.173901
							}
						}
					}
				}
			}
		}
	}
	JOINT LeftHip
	{
		OFFSET 2.047997 -0.047200 -2.693199
		CHANNELS 6 Xposition Yposition Zposition Zrotation Xrotation Yrotation
		JOINT LeftKnee
		{
			OFFSET 0.000000 -0.000001 -18.824400
			CHANNELS 6 Xposition Yposition Zposition Zrotation Xrotation Yrotation
			JOINT LeftAnkle
			{
				OFFSET 0.000000 -0.000002 -19.078199
				CHANNELS 6 Xposition Yposition Zposition Zrotation Xrotation Yrotation
				End Site
				{
					OFFSET 0.000000 -9.342100 0.000001
				}
			}
		}
	}
	JOINT RightHip
	{
		OFFSET -2.129898 -0.022300 -2.538300
		CHANNELS 6 Xposition Yposition Zposition Zrotation Xrotation Yrotation
		JOINT RightKnee
		{
			OFFSET 0.000000 -0.000001 -18.644600
			CHANNELS 6 Xposition Yposition Zposition Zrotation Xrotation Yrotation
			JOINT RightAnkle
			{
				OFFSET 0.000000 -0.000002 -18.801399
				CHANNELS 6 Xposition Yposition Zposition Zrotation Xrotation Yrotation
				End Site
				{
					OFFSET 0.000000 -8.914600 0.000001
				}
			}
		}
	}
}
MOTION
Frames: 5
Frame Time: 0.041667
52.239693 -24.853405 38.197727 2495.702601 37.224528 233.326174 -0.160400 1.630003 7.806300 -22.269871 6.951328 -12.317943 0.000002 0.000003 3.197998 8.249717 -10.694989 0.948885 -0.000006 0.000002 7.440704 8.982200 -25.810322 16.016524 0.000004 0.000005 2.173905 6.092572 -11.981485 8.027002 2.426403 -1.880100 4.759398 -188.467773 159.727881 -195.377971 4.420206 0.000003 0.000003 -88.295713 -15.880977 -145.719518 -0.000000 0.000002 -10.347091 557.723796 -153.856445 -536.262085 0.000002 0.000003 -12.496298 -20.738047 0.358826 -9.576871 -2.781506 -1.903800 5.072604 -157.786632 -205.514040 165.783294 -4.012101 0.000001 -0.000018 46.476944 -15.347343 495.874903 0.000000 -0.000001 -10.346599 -209.030058 -175.631471 -181.623227 0.000001 0.000004 -12.562603 910.806928 542.352646 -838.235130 2.047995 -0.047197 -2.693200 723.077102 -20.646762 6.699849 -0.000002 -0.000010 -18.824392 -341.873535 25.054391 8.352969 -0.000000 -0.000003 -19.078197 -402.590939 42.481734 17.581817 -2.129889 -0.022299 -2.538295 -867.935907 -22.526637 -131.621078 0.000004 -0.000001 -18.644594 305.823769 -214.073292 141.465526 -0.000002 -0.000010 -18.801399 163.523089 192.872562 158.118551
53.078789 -25.631409 37.978333 2493.354546 38.500591 239.989679 -0.160406 1.630008 7.806307 -24.505120 8.235314 -11.970292 0.000010 0.000004 3.197995 9.817512 -10.887485 1.199599 -0.000001 0.000005 7.440703 10.258943 -24.209909 16.771963 -0.000005 0.000002 2.173904 6.499480 -11.561708 8.085559 2.426406 -1.880097 4.759402 -186.248194 157.881913 -198.245435 4.420197 0.000003 -0.000001 -93.089598 -18.473261 -144.967610 -0.000001 -0.000005 -10.347091 559.027488 -151.341583 -534.485580 -0.000011 -0.000001 -12.496294 -24.328205 -0.704807 -2.593596 -2.781502 -1.903800 5.072609 -157.068109 -205.458429 165.369275 -4.012102 0.000003 -0.000008 43.496239 -17.391963 491.713842 -0.000005 0.000001 -10.346597 -206.949076 -175.569002 -181.587286 -0.000006 -0.000000 -12.562597 910.679067 542.546187 -842.117956 2.047999 -0.047196 -2.693193 727.597157 -22.528682 10.117638 0.000001 -0.000007 -18.824394 -342.529069 27.340475 8.302827 -0.000009 -0.000001 -19.078205 -408.210791 39.236507 24.516920 -2.129899 -0.022291 -2.538296 -867.595763 -24.256575 -132.328672 0.000000 -0.000004 -18.644594 314.782600 -214.596798 132.937980 0.000000 -0.000008 -18.801399 156.434254 196.713792 152.237936
54.049702 -26.448105 37.766731 2490.778526 38.992915 247.126407 -0.160401 1.629999 7.806304 -27.574503 9.522953 -11.634521 0.000005 0.000002 3.197999 12.140036 -10.807839 1.563193 -0.000014 0.000002 7.440712 11.712643 -22.565577 17.515166 -0.000002 0.000001 2.173911 6.645785 -11.211694 8.380931 2.426394 -1.880096 4.759409 -186.799609 159.407873 -200.456217 4.420185 0.000013 -0.000008 -94.669871 -21.408830 -140.208115 -0.000003 0.000000 -10.347091 559.804053 -148.946318 -533.065502 -0.000003 -0.000002 -12.496299 -27.382326 -1.507741 3.597755 -2.781509 -1.903803 5.072608 -156.786432 -203.213714 164.736335 -4.012099 0.000005 0.000002 38.994175 -17.629828 486.496889 0.000002 0.000001 -10.346599 -207.888064 -175.200663 -182.022602 -0.000002 0.000000 -12.562597 914.120061 542.519084 -846.665332 2.047998 -0.047202 -2.693193 731.538177 -24.085959 13.178542 -0.000009 0.000000 -18.824400 -343.682142 29.735594 8.283522 -0.000010 0.000006 -19.078197 -409.470387 38.708369 24.422438 -2.129899 -0.022300 -2.538295 -867.096777 -24.827056 -132.137072 0.000004 -0.000002 -18.644604 323.089149 -212.788369 125.122030 0.000003 -0.000002 -18.801399 148.665720 200.152956 144.928090
55.049397 -27.197002 37.575233 2488.085356 39.122405 254.749390 -0.160399 1.629999 7.806304 -30.979815 11.317057 -11.113023 0.000002 0.000005 3.197998 14.836030 -10.710669 1.679907 -0.000015 0.000001 7.440694 13.031817 -21.085144 18.838094 -0.000001 0.000006 2.173908 6.801776 -10.985979 8.347896 2.426400 -1.880100 4.759387 -187.012410 161.511311 -202.320203 4.420194 0.000001 -0.000002 -96.976139 -25.166290 -135.387067 -0.000010 0.000001 -10.347099 558.448834 -146.431456 -531.976114 -0.000003 -0.000001 -12.496302 -30.122476 -2.178450 8.118578 -2.781507 -1.903797 5.072593 -159.707158 -200.302592 166.452024 -4.012111 0.000004 -0.000007 36.803399 -17.718129 480.344364 -0.000002 0.000000 -10.346600 -209.630964 -175.053322 -182.213505 0.000001 0.000000 -12.562596 920.051944 543.627761 -855.542938 2.047999 -0.047198 -2.693197 735.481491 -25.104505 15.555872 0.000000 0.000000 -18.824404 -344.967583 32.225587 8.065185 -0.000012 0.000004 -19.078196 -408.528504 39.032745 23.066041 -2.129898 -0.022302 -2.538303 -866.345893 -25.637933 -131.200366 -0.000001 0.000000 -18.644592 326.401900 -213.808335 119.494392 -0.000004 0.000003 -18.801401 144.993592 201.001320 142.378941
56.075699 -27.917103 37.376129 2485.676758 38.873339 262.342867 -0.160400 1.630003 7.806304 -35.262805 12.867905 -10.378458 0.000005 0.000006 3.198007 18.464329 -10.264742 2.092765 -0.000006 0.000003 7.440698 15.403029 -19.281738 19.572404 -0.000002 -0.000003 2.173906 6.027663 -10.566924 8.664937 2.426400 -1.880100 4.759399 -186.083258 160.094033 -204.393944 4.420195 -0.000006 0.000009 -93.915258 -23.254108 -130.919481 0.000003 -0.000000 -10.347090 563.846487 -142.856248 -531.738860 0.000002 0.000005 -12.496303 -32.532758 -2.750321 11.551141 -2.781512 -1.903798 5.072603 -159.968973 -202.148997 166.185428 -4.012101 -0.000001 -0.000001 33.588203 -20.791753 478.284926 0.000007 -0.000001 -10.346597 -216.082433 -174.575032 -183.206041 0.000003 -0.000004 -12.562597 930.016152 545.294983 -866.826793 2.048002 -0.047196 -2.693201 738.623159 -25.821209 17.167648 -0.000003 0.000005 -18.824406 -344.919553 34.411555 7.303044 -0.000003 -0.000009 -19.078199 -406.278940 38.186843 21.911349 -2.129896 -0.022298 -2.538299 -865.648285 -26.167351 -130.078453 0.000001 0.000002 -18.644594 326.650464 -218.142172 115.082294 0.000002 -0.000009 -18.801401 145.735309 200.401671 142.936134
